<svg aria-hidden="true" style="position: absolute; width: 0; height: 0; overflow: hidden;" version="1.1" xmlns="http://www.w3.org/2000/svg" xmlns:xlink="http://www.w3.org/1999/xlink">
<defs>
<symbol id="star-2" viewBox="0 0 32 32">
<path fill="#f1f1f1" style="fill: var(--color1, #f1f1f1); stroke: var(--color1, #f1f1f1)" stroke="#f1f1f1" stroke-linejoin="miter" stroke-linecap="butt" stroke-miterlimit="4" stroke-width="2.4" d="M12.4 9.394l3.6-6.822 3.6 6.822c0.318 0.603 0.899 1.025 1.571 1.141l7.601 1.315-5.376 5.532c-0.475 0.489-0.697 1.171-0.6 1.846l1.098 7.635-6.922-3.404c-0.612-0.301-1.329-0.301-1.941 0l-6.922 3.404 1.098-7.635c0.097-0.675-0.125-1.357-0.6-1.846l-5.376-5.532 7.601-1.315c0.672-0.116 1.252-0.538 1.571-1.141zM29.035 11.579v0zM7.767 27.031c0 0 0 0 0 0h-0z"></path>
</symbol>
<symbol id="flash" viewBox="0 0 27 32">
<path fill="none" stroke="#59b17a" style="stroke: var(--color2, #59b17a)" stroke-linejoin="round" stroke-linecap="round" stroke-miterlimit="4" stroke-width="2.5263" d="M14.877 1.965l-12.5 15c-0.49 0.587-0.734 0.881-0.738 1.129-0.003 0.216 0.093 0.421 0.261 0.556 0.193 0.156 0.575 0.156 1.34 0.156h10.234l-1.403 11.228 12.5-15.001c0.49-0.587 0.734-0.881 0.738-1.129 0.003-0.216-0.093-0.421-0.261-0.556-0.193-0.156-0.575-0.156-1.34-0.156h-10.234l1.404-11.228z"></path>
</symbol>
<symbol id="youtube" viewBox="0 0 32 32">
<path fill="none" stroke="#f7f8fa" style="stroke: var(--color3, #f7f8fa)" stroke-linejoin="miter" stroke-linecap="butt" stroke-miterlimit="4" stroke-width="0.7273" d="M7.273 0.364h17.455c3.816 0 6.909 3.093 6.909 6.909v17.455c0 3.816-3.093 6.909-6.909 6.909h-17.455c-3.816 0-6.909-3.093-6.909-6.909v-17.455c0-3.816 3.093-6.909 6.909-6.909z"></path>
<path fill="#f7f8fa" style="fill: var(--color3, #f7f8fa)" opacity="0.8" d="M21.243 9.636c-0.865-0.051-2.647-0.102-5.345-0.102h-0.356c-2.596 0-4.327 0.051-5.193 0.153-1.171 0.102-1.985 0.407-2.444 0.815-0.407 0.356-0.713 1.018-0.815 1.884-0.051 0.56-0.102 1.731-0.102 3.513v0.255c0 1.68 0.051 2.851 0.153 3.411 0.153 0.815 0.407 1.425 0.916 1.782 0.509 0.407 1.375 0.662 2.596 0.764 0.865 0.051 2.647 0.102 5.345 0.102h0.356c2.596 0 4.327-0.051 5.193-0.153 1.171-0.102 1.985-0.407 2.444-0.815 0.407-0.356 0.713-1.018 0.815-1.884 0.051-0.56 0.102-1.731 0.102-3.513v-0.255c0-1.68-0.051-2.851-0.153-3.411-0.153-0.815-0.407-1.425-0.916-1.782-0.509-0.407-1.375-0.662-2.596-0.764zM19.258 15.898l-5.6 3.36v-6.72l5.6 3.36z"></path>
</symbol>
<symbol id="facebook" viewBox="0 0 32 32">
<path fill="none" stroke="#f7f8fa" style="stroke: var(--color3, #f7f8fa)" stroke-linejoin="miter" stroke-linecap="butt" stroke-miterlimit="4" stroke-width="0.7273" d="M7.273 0.364h17.455c3.816 0 6.909 3.093 6.909 6.909v17.455c0 3.816-3.093 6.909-6.909 6.909h-17.455c-3.816 0-6.909-3.093-6.909-6.909v-17.455c0-3.816 3.093-6.909 6.909-6.909z"></path>
<path fill="#f7f8fa" style="fill: var(--color3, #f7f8fa)" opacity="0.8" d="M18.239 8.771c0.153 0 0.305 0 0.611 0v2.291c-0.153 0-0.458 0-0.764 0s-0.611 0-0.764 0.153c-0.153 0.153-0.153 0.305-0.153 0.662 0 0.305 0 0.509 0 0.815h1.68v1.935h-1.68v8.4h-2.596v-8.451h-1.375v-1.935h1.375v-0.662c0-1.12 0.153-1.935 0.458-2.291 0.458-0.662 1.375-0.967 2.749-0.967 0.153 0.051 0.305 0.051 0.458 0.051z"></path>
</symbol>
<symbol id="instagram" viewBox="0 0 32 32">
<path fill="none" stroke="#f7f8fa" style="stroke: var(--color3, #f7f8fa)" stroke-linejoin="miter" stroke-linecap="butt" stroke-miterlimit="4" stroke-width="0.7273" d="M7.273 0.364h17.455c3.816 0 6.909 3.093 6.909 6.909v17.455c0 3.816-3.093 6.909-6.909 6.909h-17.455c-3.816 0-6.909-3.093-6.909-6.909v-17.455c0-3.816 3.093-6.909 6.909-6.909z"></path>
<path fill="#f7f8fa" style="fill: var(--color3, #f7f8fa)" opacity="0.8" d="M24.094 12.663c-0.010-0.684-0.137-1.362-0.379-2.001-0.424-1.092-1.288-1.955-2.382-2.378-0.632-0.238-1.301-0.365-1.978-0.379-0.87-0.039-1.146-0.050-3.355-0.050s-2.492 0-3.356 0.050c-0.676 0.014-1.344 0.142-1.977 0.379-1.094 0.423-1.959 1.286-2.382 2.378-0.238 0.631-0.366 1.299-0.379 1.973-0.039 0.87-0.051 1.145-0.051 3.351s0 2.487 0.051 3.351c0.014 0.676 0.141 1.342 0.379 1.975 0.424 1.091 1.288 1.954 2.383 2.377 0.63 0.246 1.298 0.385 1.977 0.406 0.871 0.039 1.147 0.051 3.356 0.051s2.492 0 3.356-0.051c0.676-0.014 1.344-0.141 1.978-0.378 1.094-0.424 1.958-1.287 2.382-2.378 0.238-0.632 0.366-1.299 0.379-1.975 0.039-0.869 0.051-1.144 0.051-3.351-0.002-2.205-0.002-2.485-0.052-3.35zM15.994 20.156c-2.31 0-4.182-1.869-4.182-4.175s1.872-4.175 4.182-4.175c2.309 0 4.182 1.869 4.182 4.175s-1.874 4.175-4.182 4.175zM20.343 12.625c-0.54 0-0.975-0.435-0.975-0.974s0.435-0.974 0.975-0.974c0.538 0 0.974 0.435 0.974 0.974s-0.436 0.974-0.974 0.974z"></path>
<path fill="#f7f8fa" style="fill: var(--color3, #f7f8fa)" opacity="0.8" d="M15.994 18.53c1.407 0 2.548-1.141 2.548-2.548s-1.141-2.548-2.548-2.548c-1.407 0-2.548 1.141-2.548 2.548s1.141 2.548 2.548 2.548z"></path>
</symbol>
<symbol id="map-pin" viewBox="0 0 32 32">
<path fill="none" stroke="#59b17a" style="stroke: var(--color2, #59b17a)" stroke-linejoin="round" stroke-linecap="round" stroke-miterlimit="4" stroke-width="2.6667" d="M28 13.333c0 9.333-12 17.333-12 17.333s-12-8-12-17.333c0-3.183 1.264-6.235 3.515-8.485s5.303-3.515 8.485-3.515c3.183 0 6.235 1.264 8.485 3.515s3.515 5.303 3.515 8.485z"></path>
<path fill="none" stroke="#59b17a" style="stroke: var(--color2, #59b17a)" stroke-linejoin="round" stroke-linecap="round" stroke-miterlimit="4" stroke-width="2.6667" d="M16 17.333c2.209 0 4-1.791 4-4s-1.791-4-4-4c-2.209 0-4 1.791-4 4s1.791 4 4 4z"></path>
</symbol>
<symbol id="shopping-cart" viewBox="0 0 32 32">
<path fill="none" stroke="#59b17a" style="stroke: var(--color2, #59b17a)" stroke-linejoin="round" stroke-linecap="round" stroke-miterlimit="4" stroke-width="3" d="M12.005 29.333c0.736 0 1.333-0.597 1.333-1.333s-0.597-1.333-1.333-1.333c-0.736 0-1.333 0.597-1.333 1.333s0.597 1.333 1.333 1.333z"></path>
<path fill="none" stroke="#59b17a" style="stroke: var(--color2, #59b17a)" stroke-linejoin="round" stroke-linecap="round" stroke-miterlimit="4" stroke-width="3" d="M26.661 29.333c0.736 0 1.333-0.597 1.333-1.333s-0.597-1.333-1.333-1.333c-0.736 0-1.333 0.597-1.333 1.333s0.597 1.333 1.333 1.333z"></path>
<path fill="none" stroke="#59b17a" style="stroke: var(--color2, #59b17a)" stroke-linejoin="round" stroke-linecap="round" stroke-miterlimit="4" stroke-width="3" d="M1.328 1.334h5.333l3.573 17.853c0.122 0.614 0.456 1.165 0.943 1.558s1.098 0.601 1.723 0.589h12.96c0.626 0.012 1.236-0.196 1.723-0.589s0.821-0.944 0.943-1.558l2.133-11.187h-22.667"></path>
</symbol>
<symbol id="phone" viewBox="0 0 32 32">
<path fill="none" stroke="#59b17a" style="stroke: var(--color2, #59b17a)" stroke-linejoin="round" stroke-linecap="round" stroke-miterlimit="4" stroke-width="2.6667" d="M29.33 22.56v4c0.002 0.371-0.075 0.739-0.223 1.079s-0.367 0.646-0.641 0.897c-0.274 0.251-0.597 0.442-0.948 0.561s-0.725 0.163-1.094 0.13c-4.103-0.446-8.044-1.848-11.507-4.093-3.222-2.047-5.953-4.779-8-8-2.253-3.478-3.656-7.439-4.093-11.56-0.033-0.369 0.010-0.74 0.129-1.091s0.308-0.673 0.558-0.947c0.25-0.273 0.553-0.492 0.892-0.641s0.705-0.227 1.075-0.227h4c0.647-0.006 1.274 0.223 1.765 0.645s0.811 1.008 0.902 1.649c0.169 1.28 0.482 2.537 0.933 3.747 0.179 0.477 0.218 0.996 0.112 1.495s-0.353 0.956-0.712 1.319l-1.693 1.693c1.898 3.338 4.662 6.102 8 8l1.693-1.693c0.363-0.359 0.82-0.605 1.319-0.712s1.017-0.067 1.494 0.112c1.21 0.451 2.467 0.764 3.747 0.933 0.648 0.091 1.239 0.418 1.662 0.917s0.647 1.136 0.631 1.79z"></path>
</symbol>
<symbol id="facebook-1" viewBox="0 0 32 32">
<path fill="none" stroke="#f7f8fa" style="stroke: var(--color3, #f7f8fa)" stroke-linejoin="miter" stroke-linecap="butt" stroke-miterlimit="4" stroke-width="0.7273" d="M7.273 0.364h17.455c3.816 0 6.909 3.093 6.909 6.909v17.455c0 3.816-3.093 6.909-6.909 6.909h-17.455c-3.816 0-6.909-3.093-6.909-6.909v-17.455c0-3.816 3.093-6.909 6.909-6.909z"></path>
<path fill="#f7f8fa" style="fill: var(--color3, #f7f8fa)" opacity="0.8" d="M18.239 8.771c0.153 0 0.305 0 0.611 0v2.291c-0.153 0-0.458 0-0.764 0s-0.611 0-0.764 0.153c-0.153 0.153-0.153 0.305-0.153 0.662 0 0.305 0 0.509 0 0.815h1.68v1.935h-1.68v8.4h-2.596v-8.451h-1.375v-1.935h1.375v-0.662c0-1.12 0.153-1.935 0.458-2.291 0.458-0.662 1.375-0.967 2.749-0.967 0.153 0.051 0.305 0.051 0.458 0.051z"></path>
</symbol>
<symbol id="instagram-1" viewBox="0 0 32 32">
<path fill="none" stroke="#f7f8fa" style="stroke: var(--color3, #f7f8fa)" stroke-linejoin="miter" stroke-linecap="butt" stroke-miterlimit="4" stroke-width="0.7273" d="M7.273 0.364h17.455c3.816 0 6.909 3.093 6.909 6.909v17.455c0 3.816-3.093 6.909-6.909 6.909h-17.455c-3.816 0-6.909-3.093-6.909-6.909v-17.455c0-3.816 3.093-6.909 6.909-6.909z"></path>
<path fill="#f7f8fa" style="fill: var(--color3, #f7f8fa)" opacity="0.8" d="M24.094 12.663c-0.010-0.684-0.137-1.362-0.379-2.001-0.424-1.092-1.288-1.955-2.382-2.378-0.632-0.238-1.301-0.365-1.978-0.379-0.87-0.039-1.146-0.050-3.355-0.050s-2.492 0-3.356 0.050c-0.676 0.014-1.344 0.142-1.977 0.379-1.094 0.423-1.959 1.286-2.382 2.378-0.238 0.631-0.366 1.299-0.379 1.973-0.039 0.87-0.051 1.145-0.051 3.351s0 2.487 0.051 3.351c0.014 0.676 0.141 1.342 0.379 1.975 0.424 1.091 1.288 1.954 2.383 2.377 0.63 0.246 1.298 0.385 1.977 0.406 0.871 0.039 1.147 0.051 3.356 0.051s2.492 0 3.356-0.051c0.676-0.014 1.344-0.141 1.978-0.378 1.094-0.424 1.958-1.287 2.382-2.378 0.238-0.632 0.366-1.299 0.379-1.975 0.039-0.869 0.051-1.144 0.051-3.351-0.002-2.205-0.002-2.485-0.052-3.35zM15.994 20.156c-2.31 0-4.182-1.869-4.182-4.175s1.872-4.175 4.182-4.175c2.309 0 4.182 1.869 4.182 4.175s-1.874 4.175-4.182 4.175zM20.343 12.625c-0.54 0-0.975-0.435-0.975-0.974s0.435-0.974 0.975-0.974c0.538 0 0.974 0.435 0.974 0.974s-0.436 0.974-0.974 0.974z"></path>
<path fill="#f7f8fa" style="fill: var(--color3, #f7f8fa)" opacity="0.8" d="M15.994 18.53c1.407 0 2.548-1.141 2.548-2.548s-1.141-2.548-2.548-2.548c-1.407 0-2.548 1.141-2.548 2.548s1.141 2.548 2.548 2.548z"></path>
</symbol>
<symbol id="youtube-1" viewBox="0 0 32 32">
<path fill="none" stroke="#f7f8fa" style="stroke: var(--color3, #f7f8fa)" stroke-linejoin="miter" stroke-linecap="butt" stroke-miterlimit="4" stroke-width="0.7273" d="M7.273 0.364h17.455c3.816 0 6.909 3.093 6.909 6.909v17.455c0 3.816-3.093 6.909-6.909 6.909h-17.455c-3.816 0-6.909-3.093-6.909-6.909v-17.455c0-3.816 3.093-6.909 6.909-6.909z"></path>
<path fill="#f7f8fa" style="fill: var(--color3, #f7f8fa)" opacity="0.8" d="M21.243 9.636c-0.865-0.051-2.647-0.102-5.345-0.102h-0.356c-2.596 0-4.327 0.051-5.193 0.153-1.171 0.102-1.985 0.407-2.444 0.815-0.407 0.356-0.713 1.018-0.815 1.884-0.051 0.56-0.102 1.731-0.102 3.513v0.255c0 1.68 0.051 2.851 0.153 3.411 0.153 0.815 0.407 1.425 0.916 1.782 0.509 0.407 1.375 0.662 2.596 0.764 0.865 0.051 2.647 0.102 5.345 0.102h0.356c2.596 0 4.327-0.051 5.193-0.153 1.171-0.102 1.985-0.407 2.444-0.815 0.407-0.356 0.713-1.018 0.815-1.884 0.051-0.56 0.102-1.731 0.102-3.513v-0.255c0-1.68-0.051-2.851-0.153-3.411-0.153-0.815-0.407-1.425-0.916-1.782-0.509-0.407-1.375-0.662-2.596-0.764zM19.258 15.898l-5.6 3.36v-6.72l5.6 3.36z"></path>
</symbol>
<symbol id="star" viewBox="0 0 32 32">
<path fill="#ffc531" style="fill: var(--color4, #ffc531); stroke: var(--color4, #ffc531)" stroke="#ffc531" stroke-linejoin="miter" stroke-linecap="butt" stroke-miterlimit="4" stroke-width="2.4" d="M12.4 9.394l3.6-6.822 3.6 6.822c0.318 0.603 0.899 1.025 1.571 1.141l7.601 1.315-5.376 5.532c-0.475 0.489-0.697 1.171-0.6 1.846l1.098 7.635-6.922-3.404c-0.612-0.301-1.329-0.301-1.941 0l-6.922 3.404 1.098-7.635c0.097-0.675-0.125-1.357-0.6-1.846l-5.376-5.532 7.601-1.315c0.672-0.116 1.252-0.538 1.571-1.141zM29.035 11.579v0zM7.767 27.031c0 0 0 0 0 0h-0z"></path>
</symbol>
<symbol id="align-justify" viewBox="0 0 39 32">
<path fill="none" stroke="#fff" style="stroke: var(--color1, #fff)" stroke-linejoin="round" stroke-linecap="round" stroke-miterlimit="4" stroke-width="2.4615" d="M34.877 16.255h-29.538"></path>
<path fill="none" stroke="#fff" style="stroke: var(--color1, #fff)" stroke-linejoin="round" stroke-linecap="round" stroke-miterlimit="4" stroke-width="2.4615" d="M34.877 9.855h-29.538"></path>
<path fill="none" stroke="#fff" style="stroke: var(--color1, #fff)" stroke-linejoin="round" stroke-linecap="round" stroke-miterlimit="4" stroke-width="2.4615" d="M34.877 22.655h-29.538"></path>
</symbol>
<symbol id="close" viewBox="0 0 32 32">
<path fill="none" stroke="#fff" style="stroke: var(--color1, #fff)" stroke-linejoin="round" stroke-linecap="round" stroke-miterlimit="4" stroke-width="2" d="M24 8l-16 16"></path>
<path fill="none" stroke="#fff" style="stroke: var(--color1, #fff)" stroke-linejoin="round" stroke-linecap="round" stroke-miterlimit="4" stroke-width="2" d="M8 8l16 16"></path>
</symbol>
</defs>
</svg>
